<svg width="291" height="267" viewBox="0 0 291 267" fill="none" xmlns="http://www.w3.org/2000/svg">
<g style="mix-blend-mode:multiply" filter="url(#filter0_dddddddd_1848_2487)">
<g filter="url(#filter1_i_1848_2487)">
<path d="M80.0162 50.5341C80.0162 40.9171 80.0162 31.3057 80.0162 21.6889C80.0162 18.8725 80.065 16.0561 80.682 13.2937C82.2246 6.35821 87.3775 1.68764 94.5925 0.638928C97.4341 0.228093 100.281 -0.0421936 103.161 0.0118638C109.147 0.119979 115.144 -0.317885 121.104 0.606499C123.897 1.03896 126.603 1.76332 129.19 2.90394C137.515 6.56363 139.598 13.5749 138.809 20.5915C138.7 21.5538 138.484 22.5106 138.229 23.4404C136.887 28.3488 133.704 31.4138 128.838 32.8301C125.932 33.6788 122.939 34.0788 119.972 34.6465C119.144 34.8032 117.948 34.7762 117.796 35.7276C117.629 36.8196 118.776 37.2899 119.626 37.7331C121.315 38.6142 123.166 39.0575 124.974 39.6035C127.864 40.4739 130.711 41.436 133.504 42.6037C141.666 46.0201 145.839 52.3234 146.938 60.8969C147.501 65.2972 147.436 69.6646 146.332 73.9892C145.206 78.395 142.484 81.3252 138.197 82.8386C134.559 84.1254 130.771 84.72 126.971 85.2927C119.041 86.4929 111.058 86.5253 103.063 86.4282C102.858 86.4282 102.652 86.4282 102.446 86.4172C102.062 86.3958 101.694 86.2927 101.661 85.855C101.629 85.3849 102.013 85.3037 102.387 85.2713C103.458 85.1792 104.53 85.093 105.602 84.9954C110.397 84.5686 115.15 83.9143 119.837 82.747C125.277 81.3954 128.34 77.9627 129.315 72.546C130.403 66.4969 130.067 60.5398 128.059 54.7018C126.262 49.469 122.673 45.9012 117.748 43.5389C114.506 41.982 111.079 40.9604 107.659 39.9224C106.192 39.4792 104.72 39.0251 103.339 38.3494C102.609 37.9926 101.878 37.5926 101.239 37.0953C99.8806 36.0411 100.016 35.1059 101.607 34.3708C102.782 33.8302 104.054 33.6464 105.32 33.4626C107.144 33.2031 108.974 32.9761 110.787 32.6734C116.384 31.749 119.626 28.3163 120.985 22.9592C121.748 19.9428 121.813 16.8994 121.152 13.8452C119.566 6.4609 113.91 3.39586 108.346 1.88225C107.734 1.71467 107.231 2.0228 106.738 2.25525C101.412 4.74729 98.6952 9.12054 97.7589 14.7641C97.3746 17.0994 97.4071 19.4509 97.4071 21.8024C97.4016 42.7226 97.4016 63.6429 97.4016 84.5577C97.4016 86.4984 97.4016 86.5039 95.4747 86.5039C90.9173 86.5039 86.3598 86.5039 81.8024 86.5039C80.0054 86.5039 80 86.4984 80 84.7469C80.0162 73.3463 80.0162 61.9402 80.0162 50.5341Z" fill="#252D38" fill-opacity="0.6"/>
<path d="M209.27 85.3486C208.962 85.3486 208.659 85.3486 208.35 85.3486C204.101 85.3486 199.852 85.3162 195.614 84.997C190.813 84.635 186.034 84.1051 181.444 82.5484C175.046 80.3806 171.512 75.7373 170.012 69.2125C170.499 69.1851 170.889 69.1418 171.284 69.1418C177.276 69.1637 183.262 68.9959 189.227 68.4232C193 68.0607 196.745 67.5691 200.35 66.2988C204.886 64.7037 208.258 61.8766 209.898 57.2492C211.197 53.5844 211.322 49.838 210.407 46.0811C208.751 39.2753 204.681 35.5778 197.731 34.5723C192.031 33.7506 186.288 34.0371 180.562 34.075C178.256 34.0912 175.95 34.2371 173.688 34.6966C164.459 36.5778 157.688 41.4862 154.483 50.5949C152.4 56.5086 152.129 62.5688 153.298 68.726C154.749 76.3857 159.176 81.3049 166.635 83.5917C172.21 85.2998 177.936 85.9377 183.717 86.2565C192.053 86.7106 200.399 86.4621 208.745 86.5269C208.897 86.5269 209.054 86.5269 209.205 86.5269C209.633 86.5323 210.109 86.4781 210.142 85.9756C210.164 85.4567 209.709 85.3541 209.27 85.3486ZM169.406 65.9417C168.665 59.1899 169.488 52.698 172.762 46.6541C175.55 41.5132 179.912 38.2374 185.336 36.2535C185.963 36.0264 186.478 36.0751 187.062 36.3994C189.482 37.7238 191.209 39.6861 192.426 42.1187C194.418 46.0919 194.938 50.2812 194.099 54.6277C192.756 61.5792 188.237 65.3366 181.579 66.8824C178.732 67.5418 175.831 67.8012 172.908 67.8988C172.497 67.8988 172.091 67.8933 171.68 67.8988C169.623 67.9312 169.628 67.9312 169.406 65.9417Z" fill="#252D38" fill-opacity="0.6"/>
</g>
</g>
<defs>
<filter id="filter0_dddddddd_1848_2487" x="0" y="0" width="291" height="266.539" filterUnits="userSpaceOnUse" color-interpolation-filters="sRGB">
<feFlood flood-opacity="0" result="BackgroundImageFix"/>
<feColorMatrix in="SourceAlpha" type="matrix" values="0 0 0 0 0 0 0 0 0 0 0 0 0 0 0 0 0 0 127 0" result="hardAlpha"/>
<feOffset dy="1.99324"/>
<feGaussianBlur stdDeviation="0.797297"/>
<feColorMatrix type="matrix" values="0 0 0 0 0.168627 0 0 0 0 0.258824 0 0 0 0 0.345098 0 0 0 0.0766935 0"/>
<feBlend mode="normal" in2="BackgroundImageFix" result="effect1_dropShadow_1848_2487"/>
<feColorMatrix in="SourceAlpha" type="matrix" values="0 0 0 0 0 0 0 0 0 0 0 0 0 0 0 0 0 0 127 0" result="hardAlpha"/>
<feOffset dy="4.5288"/>
<feGaussianBlur stdDeviation="1.81152"/>
<feColorMatrix type="matrix" values="0 0 0 0 0.168627 0 0 0 0 0.258824 0 0 0 0 0.345098 0 0 0 0.111492 0"/>
<feBlend mode="normal" in2="effect1_dropShadow_1848_2487" result="effect2_dropShadow_1848_2487"/>
<feColorMatrix in="SourceAlpha" type="matrix" values="0 0 0 0 0 0 0 0 0 0 0 0 0 0 0 0 0 0 127 0" result="hardAlpha"/>
<feOffset dy="7.88218"/>
<feGaussianBlur stdDeviation="3.15287"/>
<feColorMatrix type="matrix" values="0 0 0 0 0.168627 0 0 0 0 0.258824 0 0 0 0 0.345098 0 0 0 0.137314 0"/>
<feBlend mode="normal" in2="effect2_dropShadow_1848_2487" result="effect3_dropShadow_1848_2487"/>
<feColorMatrix in="SourceAlpha" type="matrix" values="0 0 0 0 0 0 0 0 0 0 0 0 0 0 0 0 0 0 127 0" result="hardAlpha"/>
<feOffset dy="12.5216"/>
<feGaussianBlur stdDeviation="5.00862"/>
<feColorMatrix type="matrix" values="0 0 0 0 0.168627 0 0 0 0 0.258824 0 0 0 0 0.345098 0 0 0 0.16 0"/>
<feBlend mode="normal" in2="effect3_dropShadow_1848_2487" result="effect4_dropShadow_1848_2487"/>
<feColorMatrix in="SourceAlpha" type="matrix" values="0 0 0 0 0 0 0 0 0 0 0 0 0 0 0 0 0 0 127 0" result="hardAlpha"/>
<feOffset dy="19.3198"/>
<feGaussianBlur stdDeviation="7.72793"/>
<feColorMatrix type="matrix" values="0 0 0 0 0.168627 0 0 0 0 0.258824 0 0 0 0 0.345098 0 0 0 0.182686 0"/>
<feBlend mode="normal" in2="effect4_dropShadow_1848_2487" result="effect5_dropShadow_1848_2487"/>
<feColorMatrix in="SourceAlpha" type="matrix" values="0 0 0 0 0 0 0 0 0 0 0 0 0 0 0 0 0 0 127 0" result="hardAlpha"/>
<feOffset dy="30.1471"/>
<feGaussianBlur stdDeviation="12.0588"/>
<feColorMatrix type="matrix" values="0 0 0 0 0.168627 0 0 0 0 0.258824 0 0 0 0 0.345098 0 0 0 0.208508 0"/>
<feBlend mode="normal" in2="effect5_dropShadow_1848_2487" result="effect6_dropShadow_1848_2487"/>
<feColorMatrix in="SourceAlpha" type="matrix" values="0 0 0 0 0 0 0 0 0 0 0 0 0 0 0 0 0 0 127 0" result="hardAlpha"/>
<feOffset dy="50.0488"/>
<feGaussianBlur stdDeviation="20.0195"/>
<feColorMatrix type="matrix" values="0 0 0 0 0.168627 0 0 0 0 0.258824 0 0 0 0 0.345098 0 0 0 0.243306 0"/>
<feBlend mode="normal" in2="effect6_dropShadow_1848_2487" result="effect7_dropShadow_1848_2487"/>
<feColorMatrix in="SourceAlpha" type="matrix" values="0 0 0 0 0 0 0 0 0 0 0 0 0 0 0 0 0 0 127 0" result="hardAlpha"/>
<feOffset dy="100"/>
<feGaussianBlur stdDeviation="40"/>
<feColorMatrix type="matrix" values="0 0 0 0 0.168627 0 0 0 0 0.258824 0 0 0 0 0.345098 0 0 0 0.32 0"/>
<feBlend mode="normal" in2="effect7_dropShadow_1848_2487" result="effect8_dropShadow_1848_2487"/>
<feBlend mode="normal" in="SourceGraphic" in2="effect8_dropShadow_1848_2487" result="shape"/>
</filter>
<filter id="filter1_i_1848_2487" x="80" y="0" width="131" height="87.5391" filterUnits="userSpaceOnUse" color-interpolation-filters="sRGB">
<feFlood flood-opacity="0" result="BackgroundImageFix"/>
<feBlend mode="normal" in="SourceGraphic" in2="BackgroundImageFix" result="shape"/>
<feColorMatrix in="SourceAlpha" type="matrix" values="0 0 0 0 0 0 0 0 0 0 0 0 0 0 0 0 0 0 127 0" result="hardAlpha"/>
<feOffset dy="1"/>
<feGaussianBlur stdDeviation="0.5"/>
<feComposite in2="hardAlpha" operator="arithmetic" k2="-1" k3="1"/>
<feColorMatrix type="matrix" values="0 0 0 0 1 0 0 0 0 1 0 0 0 0 1 0 0 0 0.25 0"/>
<feBlend mode="normal" in2="shape" result="effect1_innerShadow_1848_2487"/>
</filter>
</defs>
</svg>
